<?xml version="1.0" encoding="UTF-8" standalone="no"?>
<!DOCTYPE svg PUBLIC "-//W3C//DTD SVG 1.1//EN" "http://www.w3.org/Graphics/SVG/1.1/DTD/svg11.dtd">
<svg width="100%" height="100%" viewBox="0 0 16 16" version="1.1" xmlns="http://www.w3.org/2000/svg" xmlns:xlink="http://www.w3.org/1999/xlink" xml:space="preserve" xmlns:serif="http://www.serif.com/" style="fill-rule:evenodd;clip-rule:evenodd;stroke-linejoin:round;stroke-miterlimit:2;">
    <path d="M11.983,1.973L11.983,12.001L3.935,12.001L3.935,1.973L3.319,1.973C2.577,1.973 1.975,2.575 1.975,3.317L1.975,12.684C1.975,13.426 2.577,14.029 3.319,14.029L12.644,14.029C13.386,14.029 13.989,13.426 13.989,12.684L13.989,3.317C13.989,2.575 13.386,1.973 12.644,1.973L11.983,1.973ZM10.959,0.997L4.965,0.997L4.965,5.018L10.959,5.018L10.959,0.997ZM10.021,3.948L10.038,3.948L10.038,1.932L6.016,1.932L6.016,3.948L6.034,3.948L6.034,4.005L10.021,4.005L10.021,3.948Z" style="fill:rgb(67,67,67);"/>
</svg>
