<?xml version="1.0" encoding="UTF-8" standalone="no"?>
<!-- Created with Inkscape (http://www.inkscape.org/) -->

<svg
   version="1.1"
   id="svg2"
   width="279.78906"
   height="79.465965"
   viewBox="0 0 279.78907 79.465964"
   sodipodi:docname="gluon_logo.svg"
   inkscape:version="1.2.1 (9c6d41e, 2022-07-14)"
   xmlns:inkscape="http://www.inkscape.org/namespaces/inkscape"
   xmlns:sodipodi="http://sodipodi.sourceforge.net/DTD/sodipodi-0.dtd"
   xmlns="http://www.w3.org/2000/svg"
   xmlns:svg="http://www.w3.org/2000/svg">
  <defs
     id="defs6" />
  <sodipodi:namedview
     id="namedview4"
     pagecolor="#ffffff"
     bordercolor="#000000"
     borderopacity="0.25"
     inkscape:showpageshadow="2"
     inkscape:pageopacity="0.0"
     inkscape:pagecheckerboard="0"
     inkscape:deskcolor="#d1d1d1"
     showgrid="false"
     inkscape:zoom="1.8875972"
     inkscape:cx="135.88704"
     inkscape:cy="59.334692"
     inkscape:window-width="1309"
     inkscape:window-height="456"
     inkscape:window-x="0"
     inkscape:window-y="38"
     inkscape:window-maximized="0"
     inkscape:current-layer="g8" />
  <g
     id="g8"
     inkscape:groupmode="layer"
     inkscape:label="ink_ext_XXXXXX"
     transform="matrix(1.3333333,0,0,-1.3333333,0,79.465962)">
    <g
       id="g10"
       transform="scale(0.06471146,0.06355928)">
      <path
         d="m 678.203,837.531 c 37.211,-46.125 59.485,-104.789 59.485,-168.668 0,-13.359 -0.977,-26.5 -2.86,-39.336 83.805,-21.144 151.961,-81.636 183.652,-160.679 12.399,30.914 19.219,64.668 19.219,100.007 0,145.348 -115.347,263.754 -259.496,268.676"
         style="fill:#548dd1;fill-opacity:1;fill-rule:nonzero;stroke:none"
         id="path12" />
      <path
         d="m 468.852,937.699 c -84.598,0 -160.075,-39.082 -209.356,-100.168 3.102,0.11 6.215,0.16 9.34,0.16 79.422,0 150.801,-34.437 200.016,-89.199 49.211,54.762 120.589,89.199 200.011,89.199 3.125,0 6.239,-0.05 9.34,-0.16 -49.281,61.086 -124.758,100.168 -209.351,100.168"
         style="fill:#548dd1;fill-opacity:1;fill-rule:nonzero;stroke:none"
         id="path14" />
      <path
         d="m 668.863,837.691 c -79.422,0 -150.8,-34.437 -200.011,-89.199 35.75,-39.781 59.808,-90.293 66.753,-146.109 39.282,22.461 84.766,35.297 133.258,35.297 22.762,0 44.856,-2.828 65.965,-8.153 1.883,12.836 2.86,25.977 2.86,39.336 0,63.879 -22.274,122.543 -59.485,168.668 -3.101,0.11 -6.215,0.16 -9.34,0.16"
         style="fill:#2d67ba;fill-opacity:1;fill-rule:nonzero;stroke:none"
         id="path16" />
      <path
         d="M 259.496,837.531 C 115.348,832.609 0,714.203 0,568.855 0,533.516 6.82031,499.762 19.2188,468.848 50.9102,547.891 119.07,608.383 202.871,629.527 c -1.883,12.836 -2.859,25.977 -2.859,39.336 0,63.879 22.273,122.543 59.484,168.668"
         style="fill:#548dd1;fill-opacity:1;fill-rule:nonzero;stroke:none"
         id="path18" />
      <path
         d="m 268.836,837.691 c -3.125,0 -6.238,-0.05 -9.34,-0.16 -37.211,-46.125 -59.484,-104.789 -59.484,-168.668 0,-13.359 0.976,-26.5 2.859,-39.336 21.109,5.325 43.203,8.153 65.965,8.153 48.492,0 93.977,-12.836 133.258,-35.297 6.945,55.816 31.004,106.328 66.758,146.109 -49.215,54.762 -120.594,89.199 -200.016,89.199"
         style="fill:#2d67ba;fill-opacity:1;fill-rule:nonzero;stroke:none"
         id="path20" />
      <path
         d="m 468.852,748.492 c -35.754,-39.781 -59.813,-90.293 -66.758,-146.109 25.054,-14.328 47.59,-32.578 66.758,-53.903 19.164,21.325 41.699,39.575 66.753,53.903 -6.945,55.816 -31.003,106.328 -66.753,146.109"
         style="fill:#2653ac;fill-opacity:1;fill-rule:nonzero;stroke:none"
         id="path22" />
      <path
         d="M 19.2188,468.848 C 6.82031,437.938 0,404.184 0,368.844 0,223.496 115.352,105.086 259.496,100.164 c -37.211,46.125 -59.484,104.793 -59.484,168.672 0,13.359 0.976,26.5 2.859,39.336 C 119.07,329.316 50.9102,389.809 19.2188,468.848"
         style="fill:#548dd1;fill-opacity:1;fill-rule:nonzero;stroke:none"
         id="path24" />
      <path
         d="M 202.871,629.527 C 119.07,608.383 50.9102,547.891 19.2188,468.848 50.9102,389.809 119.07,329.316 202.871,308.172 c 9.305,63.48 40.793,119.738 86.344,160.676 -45.551,40.937 -77.039,97.199 -86.344,160.679"
         style="fill:#2d67ba;fill-opacity:1;fill-rule:nonzero;stroke:none"
         id="path26" />
      <path
         d="m 268.836,637.68 c -22.762,0 -44.856,-2.828 -65.965,-8.153 9.305,-63.48 40.793,-119.742 86.344,-160.679 31.914,28.683 70.742,49.84 113.668,60.672 -1.883,12.835 -2.86,25.976 -2.86,39.335 0,11.356 0.704,22.543 2.071,33.528 -39.281,22.461 -84.766,35.297 -133.258,35.297"
         style="fill:#2653ac;fill-opacity:1;fill-rule:nonzero;stroke:none"
         id="path28" />
      <path
         d="m 402.094,602.383 c -1.367,-10.985 -2.071,-22.172 -2.071,-33.528 0,-13.359 0.977,-26.5 2.86,-39.335 18.211,4.593 37.152,7.328 56.629,7.996 3.011,3.734 6.133,7.394 9.34,10.964 -19.168,21.325 -41.704,39.575 -66.758,53.903"
         style="fill:#2747a3;fill-opacity:1;fill-rule:nonzero;stroke:none"
         id="path30" />
      <path
         d="M 918.48,468.848 C 886.789,389.809 818.633,329.316 734.828,308.172 c 1.883,-12.836 2.86,-25.977 2.86,-39.336 0,-63.879 -22.274,-122.547 -59.489,-168.672 144.153,4.922 259.5,123.332 259.5,268.68 0,35.34 -6.82,69.094 -19.219,100.004"
         style="fill:#548dd1;fill-opacity:1;fill-rule:nonzero;stroke:none"
         id="path32" />
      <path
         d="m 734.828,629.527 c -9.301,-63.48 -40.793,-119.742 -86.34,-160.679 45.547,-40.938 77.039,-97.196 86.34,-160.676 83.805,21.144 151.961,81.637 183.652,160.676 -31.691,79.043 -99.847,139.535 -183.652,160.679"
         style="fill:#2d67ba;fill-opacity:1;fill-rule:nonzero;stroke:none"
         id="path34" />
      <path
         d="m 668.863,637.68 c -48.492,0 -93.976,-12.836 -133.258,-35.297 1.368,-10.985 2.071,-22.172 2.071,-33.528 0,-13.359 -0.977,-26.5 -2.86,-39.335 42.926,-10.832 81.754,-31.989 113.672,-60.672 45.547,40.937 77.039,97.199 86.34,160.679 -21.109,5.325 -43.203,8.153 -65.965,8.153"
         style="fill:#2653ac;fill-opacity:1;fill-rule:nonzero;stroke:none"
         id="path36" />
      <path
         d="m 535.605,602.383 c -25.054,-14.328 -47.589,-32.578 -66.753,-53.903 3.203,-3.57 6.324,-7.23 9.339,-10.964 19.473,-0.668 38.414,-3.403 56.625,-7.996 1.883,12.835 2.86,25.976 2.86,39.335 0,11.356 -0.703,22.543 -2.071,33.528"
         style="fill:#2747a3;fill-opacity:1;fill-rule:nonzero;stroke:none"
         id="path38" />
      <path
         d="m 468.852,548.48 c -3.207,-3.57 -6.329,-7.23 -9.34,-10.964 3.097,0.105 6.211,0.156 9.34,0.156 3.125,0 6.238,-0.051 9.339,-0.156 -3.015,3.734 -6.136,7.394 -9.339,10.964"
         style="fill:#293f9d;fill-opacity:1;fill-rule:nonzero;stroke:none"
         id="path40" />
      <path
         d="m 468.852,189.203 c -49.215,-54.758 -120.594,-89.195 -200.016,-89.195 -3.125,0 -6.238,0.051 -9.34,0.156 C 308.777,39.082 384.254,0 468.852,0 c 84.593,0 160.07,39.082 209.347,100.164 -3.097,-0.105 -6.211,-0.156 -9.336,-0.156 -79.422,0 -150.8,34.437 -200.011,89.195"
         style="fill:#548dd1;fill-opacity:1;fill-rule:nonzero;stroke:none"
         id="path42" />
      <path
         d="M 402.094,335.316 C 362.813,312.855 317.328,300.02 268.836,300.02 c -22.762,0 -44.856,2.828 -65.965,8.152 -1.883,-12.836 -2.859,-25.977 -2.859,-39.336 0,-63.879 22.273,-122.547 59.484,-168.672 3.102,-0.105 6.215,-0.156 9.34,-0.156 79.422,0 150.801,34.437 200.016,89.195 -35.754,39.785 -59.813,90.297 -66.758,146.113"
         style="fill:#2d67ba;fill-opacity:1;fill-rule:nonzero;stroke:none"
         id="path44" />
      <path
         d="m 289.215,468.848 c -45.551,-40.938 -77.039,-97.196 -86.344,-160.676 21.109,-5.324 43.203,-8.152 65.965,-8.152 48.492,0 93.977,12.835 133.258,35.296 -1.367,10.985 -2.071,22.172 -2.071,33.528 0,13.355 0.977,26.5 2.86,39.336 -42.926,10.828 -81.754,31.984 -113.668,60.668"
         style="fill:#2653ac;fill-opacity:1;fill-rule:nonzero;stroke:none"
         id="path46" />
      <path
         d="m 402.883,529.52 c -42.926,-10.832 -81.754,-31.989 -113.668,-60.672 31.914,-28.684 70.742,-49.84 113.668,-60.668 3.094,21.125 8.648,41.441 16.359,60.668 -7.711,19.23 -13.262,39.547 -16.359,60.672"
         style="fill:#2747a3;fill-opacity:1;fill-rule:nonzero;stroke:none"
         id="path48" />
      <path
         d="m 459.512,537.516 c -19.477,-0.668 -38.418,-3.403 -56.629,-7.996 3.097,-21.125 8.648,-41.442 16.359,-60.672 10.008,24.961 23.645,48.058 40.27,68.668"
         style="fill:#293f9d;fill-opacity:1;fill-rule:nonzero;stroke:none"
         id="path50" />
      <path
         d="M 535.605,335.316 C 528.66,279.5 504.602,228.988 468.852,189.203 c 49.211,-54.758 120.589,-89.195 200.011,-89.195 3.125,0 6.239,0.051 9.336,0.156 37.215,46.125 59.489,104.793 59.489,168.672 0,13.359 -0.977,26.5 -2.86,39.336 -21.109,-5.324 -43.203,-8.152 -65.965,-8.152 -48.492,0 -93.976,12.835 -133.258,35.296"
         style="fill:#2d67ba;fill-opacity:1;fill-rule:nonzero;stroke:none"
         id="path52" />
      <path
         d="m 648.488,468.848 c -31.918,-28.684 -70.746,-49.84 -113.672,-60.668 1.883,-12.836 2.86,-25.981 2.86,-39.336 0,-11.356 -0.703,-22.543 -2.071,-33.528 39.282,-22.461 84.766,-35.296 133.258,-35.296 22.762,0 44.856,2.828 65.965,8.152 -9.301,63.48 -40.793,119.738 -86.34,160.676"
         style="fill:#2653ac;fill-opacity:1;fill-rule:nonzero;stroke:none"
         id="path54" />
      <path
         d="m 534.816,529.52 c -3.093,-21.125 -8.648,-41.442 -16.359,-60.672 7.711,-19.227 13.266,-39.543 16.359,-60.668 42.926,10.828 81.754,31.984 113.672,60.668 -31.918,28.683 -70.746,49.84 -113.672,60.672"
         style="fill:#2747a3;fill-opacity:1;fill-rule:nonzero;stroke:none"
         id="path56" />
      <path
         d="m 478.191,537.516 c 16.622,-20.61 30.258,-43.707 40.266,-68.668 7.711,19.23 13.266,39.547 16.359,60.672 -18.211,4.593 -37.152,7.328 -56.625,7.996"
         style="fill:#293f9d;fill-opacity:1;fill-rule:nonzero;stroke:none"
         id="path58" />
      <path
         d="m 468.852,389.219 c -19.168,-21.324 -41.704,-39.574 -66.758,-53.903 6.945,-55.816 31.004,-106.328 66.758,-146.113 35.75,39.785 59.808,90.297 66.753,146.113 -25.054,14.329 -47.589,32.579 -66.753,53.903"
         style="fill:#2653ac;fill-opacity:1;fill-rule:nonzero;stroke:none"
         id="path60" />
      <path
         d="m 534.816,408.18 c -18.211,-4.598 -37.152,-7.332 -56.628,-7.996 -3.012,-3.735 -6.133,-7.399 -9.336,-10.965 19.164,-21.324 41.699,-39.574 66.753,-53.903 1.368,10.985 2.071,22.172 2.071,33.528 0,13.355 -0.977,26.5 -2.86,39.336"
         style="fill:#2747a3;fill-opacity:1;fill-rule:nonzero;stroke:none"
         id="path62" />
      <path
         d="m 518.457,468.848 c -10.008,-24.957 -23.644,-48.059 -40.269,-68.664 19.476,0.664 38.417,3.398 56.628,7.996 -3.093,21.125 -8.648,41.441 -16.359,60.668"
         style="fill:#293f9d;fill-opacity:1;fill-rule:nonzero;stroke:none"
         id="path64" />
      <path
         d="m 402.883,408.18 c -1.883,-12.836 -2.86,-25.981 -2.86,-39.336 0,-11.356 0.704,-22.543 2.071,-33.528 25.054,14.329 47.59,32.579 66.758,53.903 -3.207,3.566 -6.329,7.23 -9.34,10.965 -19.477,0.664 -38.418,3.398 -56.629,7.996"
         style="fill:#2747a3;fill-opacity:1;fill-rule:nonzero;stroke:none"
         id="path66" />
      <path
         d="m 459.512,400.184 c 3.011,-3.735 6.133,-7.399 9.34,-10.965 3.203,3.566 6.324,7.23 9.336,10.965 -3.098,-0.106 -6.211,-0.161 -9.336,-0.161 -3.129,0 -6.243,0.055 -9.34,0.161"
         style="fill:#293f9d;fill-opacity:1;fill-rule:nonzero;stroke:none"
         id="path68" />
      <path
         d="m 419.242,468.848 c -7.711,-19.227 -13.265,-39.543 -16.359,-60.668 18.211,-4.598 37.152,-7.332 56.629,-7.996 -16.625,20.605 -30.262,43.707 -40.27,68.664"
         style="fill:#293f9d;fill-opacity:1;fill-rule:nonzero;stroke:none"
         id="path70" />
      <path
         d="m 468.852,537.672 c -3.129,0 -6.243,-0.051 -9.34,-0.156 -16.625,-20.61 -30.262,-43.707 -40.27,-68.668 10.008,-24.957 23.645,-48.059 40.27,-68.664 3.097,-0.106 6.211,-0.161 9.34,-0.161 3.125,0 6.238,0.055 9.336,0.161 16.625,20.605 30.261,43.707 40.269,68.664 -10.008,24.961 -23.644,48.058 -40.266,68.668 -3.101,0.105 -6.214,0.156 -9.339,0.156"
         style="fill:#2a3b99;fill-opacity:1;fill-rule:nonzero;stroke:none"
         id="path72" />
      <path
         d="m 592.277,614.066 c -33.41,27.961 -76.453,44.793 -123.425,44.793 -106.274,0 -192.426,-86.148 -192.426,-192.421 0,-106.274 86.152,-192.422 192.426,-192.422 106.269,0 192.421,86.148 192.421,192.422 H 468.852"
         style="fill:none;stroke:#ffffff;stroke-width:43.6361;stroke-linecap:butt;stroke-linejoin:miter;stroke-miterlimit:10;stroke-dasharray:none;stroke-opacity:1"
         id="path74" />
      <path
         d="m 1322.44,247.473 c -117.96,0 -213.93,95.968 -213.93,213.929 0,117.965 95.97,213.934 213.93,213.934 50.11,0 98.85,-17.688 137.23,-49.809 l -27.96,-33.418 c -30.55,25.571 -69.36,39.657 -109.27,39.657 -93.94,0 -170.36,-76.426 -170.36,-170.364 0,-93.933 76.42,-170.355 170.36,-170.355 86.55,0 158.24,64.883 168.97,148.57 h -168.97 v 43.571 h 213.93 v -21.786 c 0,-117.961 -95.97,-213.929 -213.93,-213.929"
         style="fill:#4980ca;fill-opacity:1;fill-rule:nonzero;stroke:none"
         id="path76" />
      <path
         d="m 1783.62,247.473 c -117.97,0 -213.93,95.968 -213.93,213.929 v 213.934 h 43.57 V 461.402 c 0,-93.933 76.42,-170.355 170.36,-170.355 34.14,0 67.07,10.055 95.23,29.078 l 24.39,-36.109 c -35.39,-23.907 -76.76,-36.543 -119.62,-36.543"
         style="fill:#4980ca;fill-opacity:1;fill-rule:nonzero;stroke:none"
         id="path78" />
      <path
         d="m 2106.44,247.473 c -117.96,0 -213.93,95.968 -213.93,213.929 v 213.934 h 43.57 V 461.402 c 0,-93.933 76.43,-170.355 170.36,-170.355 93.94,0 170.35,76.422 170.35,170.355 v 213.934 h 43.58 V 461.402 c 0,-117.961 -95.97,-213.929 -213.93,-213.929"
         style="fill:#4980ca;fill-opacity:1;fill-rule:nonzero;stroke:none"
         id="path80" />
      <path
         d="m 2567.46,630.977 c -93.59,0 -169.74,-76.145 -169.74,-169.735 0,-93.59 76.15,-169.734 169.74,-169.734 93.59,0 169.72,76.144 169.72,169.734 0,93.59 -76.13,169.735 -169.72,169.735 z m 0,-383.829 c -118.06,0 -214.1,96.04 -214.1,214.094 0,118.055 96.04,214.094 214.1,214.094 118.05,0 214.09,-96.039 214.09,-214.094 0,-118.054 -96.04,-214.094 -214.09,-214.094"
         style="fill:#4980ca;fill-opacity:1;fill-rule:nonzero;stroke:none"
         id="path82" />
      <path
         d="m 3242.73,248.188 h -43.58 v 213.218 c 0,93.938 -76.42,170.36 -170.36,170.36 -93.93,0 -170.35,-76.422 -170.35,-170.36 V 248.188 h -43.58 v 213.218 c 0,117.961 95.97,213.93 213.93,213.93 117.96,0 213.94,-95.969 213.94,-213.93 V 248.188"
         style="fill:#4980ca;fill-opacity:1;fill-rule:nonzero;stroke:none"
         id="path84" />
    </g>
  </g>
</svg>
